<?xml version="1.0" encoding="UTF-8"?>
<svg xmlns="http://www.w3.org/2000/svg" width="1120" height="1062" viewBox="0 0 1120 1062" role="img" aria-labelledby="title desc">
<title id="title">VecAdvisor real pgvector crossover</title>
<desc id="desc">Filtered vector search crossover chart for postgres sweep results.</desc>
<style>
text { font-family: "Segoe UI", Arial, sans-serif; fill: #111827; }
.chart-title { font-size: 24px; font-weight: 700; }
.summary, .legend, .footnote { font-size: 12px; fill: #4b5563; }
.panel-title { font-size: 15px; font-weight: 700; }
.axis-label, .tick { font-size: 11px; fill: #6b7280; }
.frame { fill: #ffffff; stroke: #d1d5db; stroke-width: 1; }
.grid { stroke: #e5e7eb; stroke-width: 1; }
.axis { stroke: #9ca3af; stroke-width: 1; }
.latency-line { fill: none; stroke-width: 2.4; stroke-linejoin: round; stroke-linecap: round; }
.recall-line { fill: none; stroke-width: 1.4; stroke-linejoin: round;
  stroke-linecap: round; opacity: 0.8; }
.point { stroke: #ffffff; stroke-width: 1.4; }
.recall-fail { stroke: #991b1b; stroke-width: 2; }
.measured-crossover { stroke: #111827; stroke-width: 1.6; stroke-dasharray: 5 4; }
.predicted-crossover { stroke: #b45309; stroke-width: 1.6; stroke-dasharray: 2 4; }
.winner-label { font-size: 10px; fill: #6b7280; }
</style>
<rect width="1120" height="1062" fill="#ffffff"/>
<text class="chart-title" x="86" y="38">VecAdvisor real pgvector crossover</text>
<text class="summary" x="86" y="64">backend: postgres  |  points: 4  |  recall target: 0.9  |  returns-k target: 1  |  prediction match: 50.0%  |  postfilter failures: 4</text>
<circle cx="86" cy="92" r="5" fill="#2563eb"/>
<text class="legend" x="96" y="96">exact</text>
<circle cx="169" cy="92" r="5" fill="#dc2626"/>
<text class="legend" x="179" y="96">postfilter</text>
<circle cx="297" cy="92" r="5" fill="#059669"/>
<text class="legend" x="307" y="96">iterative</text>
<line x1="820" y1="92" x2="860" y2="92" class="measured-crossover"/>
<text class="legend" x="868" y="96">measured crossover</text>
<line x1="820" y1="114" x2="860" y2="114" class="predicted-crossover"/>
<text class="legend" x="868" y="118">predicted crossover</text>
<g class="panel" id="corr-neg0_6">
<text class="panel-title" x="86" y="152">correlation = -0.6</text>
<rect class="frame" x="86" y="172" width="994" height="150" rx="4"/>
<rect class="frame" x="86" y="376" width="994" height="88" rx="4"/>
<line class="grid" x1="86.00" y1="172" x2="86.00" y2="464"/>
<text class="tick" text-anchor="middle" x="86.00" y="482">0.05</text>
<line class="grid" x1="1080.00" y1="172" x2="1080.00" y2="464"/>
<text class="tick" text-anchor="middle" x="1080.00" y="482">0.2</text>
<text class="axis-label" text-anchor="end" x="1080" y="501">target selectivity</text>
<line class="grid" x1="86" y1="322.00" x2="1080" y2="322.00"/>
<text class="tick" text-anchor="end" x="78" y="326.00">1.139</text>
<line class="grid" x1="86" y1="247.00" x2="1080" y2="247.00"/>
<text class="tick" text-anchor="end" x="78" y="251.00">12.23</text>
<line class="grid" x1="86" y1="172.00" x2="1080" y2="172.00"/>
<text class="tick" text-anchor="end" x="78" y="176.00">131.3</text>
<line class="grid" x1="86" y1="464.00" x2="1080" y2="464.00"/>
<text class="tick" text-anchor="end" x="78" y="468.00">0.0</text>
<line class="grid" x1="86" y1="420.00" x2="1080" y2="420.00"/>
<text class="tick" text-anchor="end" x="78" y="424.00">0.5</text>
<line class="grid" x1="86" y1="376.00" x2="1080" y2="376.00"/>
<text class="tick" text-anchor="end" x="78" y="380.00">1.0</text>
<text class="axis-label" x="18" y="192" transform="rotate(-90 18 192)">p95 latency ms</text>
<text class="axis-label" x="28" y="398" transform="rotate(-90 28 398)">recall@k</text>
<polyline class="latency-line" stroke="#2563eb" points="86.00,322.00 1080.00,223.49"/>
<polyline class="recall-line" stroke="#2563eb" points="86.00,376.00 1080.00,376.00"/>
<circle class="point" cx="86.00" cy="322.00" r="4" fill="#2563eb"><title>exact p95 1.14 ms at selectivity 0.05</title></circle>
<circle cx="86.00" cy="376.00" r="2.8" fill="#2563eb" opacity="0.82"><title>exact recall 1</title></circle>
<circle class="point" cx="1080.00" cy="223.49" r="4" fill="#2563eb"><title>exact p95 25.7 ms at selectivity 0.2</title></circle>
<circle cx="1080.00" cy="376.00" r="2.8" fill="#2563eb" opacity="0.82"><title>exact recall 1</title></circle>
<polyline class="latency-line" stroke="#dc2626" points="86.00,172.00 1080.00,220.33"/>
<polyline class="recall-line" stroke="#dc2626" points="86.00,464.00 1080.00,402.40"/>
<circle class="point" cx="86.00" cy="172.00" r="4" fill="#dc2626"><title>postfilter p95 131 ms at selectivity 0.05</title></circle>
<circle cx="86.00" cy="464.00" r="2.8" fill="#dc2626" opacity="0.82"><title>postfilter recall 0</title></circle>
<circle class="point" cx="1080.00" cy="220.33" r="4" fill="#dc2626"><title>postfilter p95 28.4 ms at selectivity 0.2</title></circle>
<circle cx="1080.00" cy="402.40" r="2.8" fill="#dc2626" opacity="0.82"><title>postfilter recall 0.7</title></circle>
<polyline class="latency-line" stroke="#059669" points="86.00,224.32 1080.00,225.62"/>
<polyline class="recall-line" stroke="#059669" points="86.00,421.47 1080.00,376.00"/>
<circle class="point" cx="86.00" cy="224.32" r="4" fill="#059669"><title>iterative p95 25.1 ms at selectivity 0.05</title></circle>
<circle cx="86.00" cy="421.47" r="2.8" fill="#059669" opacity="0.82"><title>iterative recall 0.483</title></circle>
<circle class="point" cx="1080.00" cy="225.62" r="4" fill="#059669"><title>iterative p95 24.1 ms at selectivity 0.2</title></circle>
<circle cx="1080.00" cy="376.00" r="2.8" fill="#059669" opacity="0.82"><title>iterative recall 1</title></circle>
<line class="measured-crossover" x1="583.00" y1="172" x2="583.00" y2="464"><title>measured crossover: exact to iterative near selectivity 0.1</title></line>
<text class="winner-label" text-anchor="middle" x="583.00" y="185">measured</text>

<text class="winner-label" x="86" y="484">winner by selectivity</text>
<rect x="80.00" y="492" width="12" height="12" rx="2" fill="#2563eb"><title>measured winner: exact</title></rect>
<circle cx="86.00" cy="519" r="5" fill="#2563eb" stroke="#111827" stroke-width="1"><title>predicted winner: exact</title></circle>
<line class="recall-fail" x1="81.00" y1="531" x2="91.00" y2="541"><title>postfilter recall below target</title></line>
<line class="recall-fail" x1="91.00" y1="531" x2="81.00" y2="541"><title>postfilter recall below target</title></line>
<rect x="1074.00" y="492" width="12" height="12" rx="2" fill="#059669"><title>measured winner: iterative</title></rect>
<circle cx="1080.00" cy="519" r="5" fill="#2563eb" stroke="#111827" stroke-width="1"><title>predicted winner: exact</title></circle>
<line class="recall-fail" x1="1075.00" y1="531" x2="1085.00" y2="541"><title>postfilter recall below target</title></line>
<line class="recall-fail" x1="1085.00" y1="531" x2="1075.00" y2="541"><title>postfilter recall below target</title></line>
</g>
<g class="panel" id="corr-0_6">
<text class="panel-title" x="86" y="582">correlation = 0.6</text>
<rect class="frame" x="86" y="602" width="994" height="150" rx="4"/>
<rect class="frame" x="86" y="806" width="994" height="88" rx="4"/>
<line class="grid" x1="86.00" y1="602" x2="86.00" y2="894"/>
<text class="tick" text-anchor="middle" x="86.00" y="912">0.05</text>
<line class="grid" x1="1080.00" y1="602" x2="1080.00" y2="894"/>
<text class="tick" text-anchor="middle" x="1080.00" y="912">0.2</text>
<text class="axis-label" text-anchor="end" x="1080" y="931">target selectivity</text>
<line class="grid" x1="86" y1="752.00" x2="1080" y2="752.00"/>
<text class="tick" text-anchor="end" x="78" y="756.00">1.139</text>
<line class="grid" x1="86" y1="677.00" x2="1080" y2="677.00"/>
<text class="tick" text-anchor="end" x="78" y="681.00">12.23</text>
<line class="grid" x1="86" y1="602.00" x2="1080" y2="602.00"/>
<text class="tick" text-anchor="end" x="78" y="606.00">131.3</text>
<line class="grid" x1="86" y1="894.00" x2="1080" y2="894.00"/>
<text class="tick" text-anchor="end" x="78" y="898.00">0.0</text>
<line class="grid" x1="86" y1="850.00" x2="1080" y2="850.00"/>
<text class="tick" text-anchor="end" x="78" y="854.00">0.5</text>
<line class="grid" x1="86" y1="806.00" x2="1080" y2="806.00"/>
<text class="tick" text-anchor="end" x="78" y="810.00">1.0</text>
<text class="axis-label" x="18" y="622" transform="rotate(-90 18 622)">p95 latency ms</text>
<text class="axis-label" x="28" y="828" transform="rotate(-90 28 828)">recall@k</text>
<polyline class="latency-line" stroke="#2563eb" points="86.00,654.89 1080.00,651.02"/>
<polyline class="recall-line" stroke="#2563eb" points="86.00,810.40 1080.00,810.40"/>
<circle class="point" cx="86.00" cy="654.89" r="4" fill="#2563eb"><title>exact p95 24.6 ms at selectivity 0.05</title></circle>
<circle cx="86.00" cy="810.40" r="2.8" fill="#2563eb" opacity="0.82"><title>exact recall 0.95</title></circle>
<circle class="point" cx="1080.00" cy="651.02" r="4" fill="#2563eb"><title>exact p95 27.8 ms at selectivity 0.2</title></circle>
<circle cx="1080.00" cy="810.40" r="2.8" fill="#2563eb" opacity="0.82"><title>exact recall 0.95</title></circle>
<polyline class="latency-line" stroke="#dc2626" points="86.00,659.38 1080.00,650.96"/>
<polyline class="recall-line" stroke="#dc2626" points="86.00,870.53 1080.00,867.60"/>
<circle class="point" cx="86.00" cy="659.38" r="4" fill="#dc2626"><title>postfilter p95 21.4 ms at selectivity 0.05</title></circle>
<circle cx="86.00" cy="870.53" r="2.8" fill="#dc2626" opacity="0.82"><title>postfilter recall 0.267</title></circle>
<circle class="point" cx="1080.00" cy="650.96" r="4" fill="#dc2626"><title>postfilter p95 27.9 ms at selectivity 0.2</title></circle>
<circle cx="1080.00" cy="867.60" r="2.8" fill="#dc2626" opacity="0.82"><title>postfilter recall 0.3</title></circle>
<polyline class="latency-line" stroke="#059669" points="86.00,654.99 1080.00,650.48"/>
<polyline class="recall-line" stroke="#059669" points="86.00,810.40 1080.00,810.40"/>
<circle class="point" cx="86.00" cy="654.99" r="4" fill="#059669"><title>iterative p95 24.5 ms at selectivity 0.05</title></circle>
<circle cx="86.00" cy="810.40" r="2.8" fill="#059669" opacity="0.82"><title>iterative recall 0.95</title></circle>
<circle class="point" cx="1080.00" cy="650.48" r="4" fill="#059669"><title>iterative p95 28.3 ms at selectivity 0.2</title></circle>
<circle cx="1080.00" cy="810.40" r="2.8" fill="#059669" opacity="0.82"><title>iterative recall 0.95</title></circle>
<line class="measured-crossover" x1="583.00" y1="602" x2="583.00" y2="894"><title>measured crossover: iterative to exact near selectivity 0.1</title></line>
<text class="winner-label" text-anchor="middle" x="583.00" y="615">measured</text>

<text class="winner-label" x="86" y="914">winner by selectivity</text>
<rect x="80.00" y="922" width="12" height="12" rx="2" fill="#059669"><title>measured winner: iterative</title></rect>
<circle cx="86.00" cy="949" r="5" fill="#2563eb" stroke="#111827" stroke-width="1"><title>predicted winner: exact</title></circle>
<line class="recall-fail" x1="81.00" y1="961" x2="91.00" y2="971"><title>postfilter recall below target</title></line>
<line class="recall-fail" x1="91.00" y1="961" x2="81.00" y2="971"><title>postfilter recall below target</title></line>
<rect x="1074.00" y="922" width="12" height="12" rx="2" fill="#2563eb"><title>measured winner: exact</title></rect>
<circle cx="1080.00" cy="949" r="5" fill="#2563eb" stroke="#111827" stroke-width="1"><title>predicted winner: exact</title></circle>
<line class="recall-fail" x1="1075.00" y1="961" x2="1085.00" y2="971"><title>postfilter recall below target</title></line>
<line class="recall-fail" x1="1085.00" y1="961" x2="1075.00" y2="971"><title>postfilter recall below target</title></line>
</g>
<text class="footnote" x="86" y="1030">Solid lines show p95 latency. Lower thin lines show recall@k. Squares are measured winners; circles are predicted winners.</text>
</svg>
