<?xml version="1.0" encoding="UTF-8"?>
<svg xmlns="http://www.w3.org/2000/svg" width="1120" height="1492" viewBox="0 0 1120 1492" role="img" aria-labelledby="title desc">
<title id="title">VecAdvisor synthetic crossover</title>
<desc id="desc">Filtered vector search crossover chart for synthetic sweep results.</desc>
<style>
text { font-family: "Segoe UI", Arial, sans-serif; fill: #111827; }
.chart-title { font-size: 24px; font-weight: 700; }
.summary, .legend, .footnote { font-size: 12px; fill: #4b5563; }
.panel-title { font-size: 15px; font-weight: 700; }
.axis-label, .tick { font-size: 11px; fill: #6b7280; }
.frame { fill: #ffffff; stroke: #d1d5db; stroke-width: 1; }
.grid { stroke: #e5e7eb; stroke-width: 1; }
.axis { stroke: #9ca3af; stroke-width: 1; }
.latency-line { fill: none; stroke-width: 2.4; stroke-linejoin: round; stroke-linecap: round; }
.recall-line { fill: none; stroke-width: 1.4; stroke-linejoin: round;
  stroke-linecap: round; opacity: 0.8; }
.point { stroke: #ffffff; stroke-width: 1.4; }
.recall-fail { stroke: #991b1b; stroke-width: 2; }
.measured-crossover { stroke: #111827; stroke-width: 1.6; stroke-dasharray: 5 4; }
.predicted-crossover { stroke: #b45309; stroke-width: 1.6; stroke-dasharray: 2 4; }
.winner-label { font-size: 10px; fill: #6b7280; }
</style>
<rect width="1120" height="1492" fill="#ffffff"/>
<text class="chart-title" x="86" y="38">VecAdvisor synthetic crossover</text>
<text class="summary" x="86" y="64">backend: synthetic  |  points: 12  |  recall target: 0.9  |  returns-k target: 1  |  safe on postfilter failures: 12/12  |  model-simulation agreement: 100.0%</text>
<circle cx="86" cy="92" r="5" fill="#2563eb"/>
<text class="legend" x="96" y="96">exact</text>
<circle cx="169" cy="92" r="5" fill="#dc2626"/>
<text class="legend" x="179" y="96">postfilter</text>
<circle cx="297" cy="92" r="5" fill="#059669"/>
<text class="legend" x="307" y="96">iterative</text>
<line x1="820" y1="92" x2="860" y2="92" class="measured-crossover"/>
<text class="legend" x="868" y="96">measured crossover</text>
<line x1="820" y1="114" x2="860" y2="114" class="predicted-crossover"/>
<text class="legend" x="868" y="118">predicted crossover</text>
<g class="panel" id="corr-neg0_6">
<text class="panel-title" x="86" y="152">correlation = -0.6</text>
<rect class="frame" x="86" y="172" width="994" height="150" rx="4"/>
<rect class="frame" x="86" y="376" width="994" height="88" rx="4"/>
<line class="grid" x1="86.00" y1="172" x2="86.00" y2="464"/>
<text class="tick" text-anchor="middle" x="86.00" y="482">0.01</text>
<line class="grid" x1="556.36" y1="172" x2="556.36" y2="464"/>
<text class="tick" text-anchor="middle" x="556.36" y="482">0.05</text>
<line class="grid" x1="758.93" y1="172" x2="758.93" y2="464"/>
<text class="tick" text-anchor="middle" x="758.93" y="482">0.1</text>
<line class="grid" x1="1080.00" y1="172" x2="1080.00" y2="464"/>
<text class="tick" text-anchor="middle" x="1080.00" y="482">0.3</text>
<text class="axis-label" text-anchor="end" x="1080" y="501">target selectivity</text>
<line class="grid" x1="86" y1="322.00" x2="1080" y2="322.00"/>
<text class="tick" text-anchor="end" x="78" y="326.00">0.1218</text>
<line class="grid" x1="86" y1="247.00" x2="1080" y2="247.00"/>
<text class="tick" text-anchor="end" x="78" y="251.00">0.4118</text>
<line class="grid" x1="86" y1="172.00" x2="1080" y2="172.00"/>
<text class="tick" text-anchor="end" x="78" y="176.00">1.392</text>
<line class="grid" x1="86" y1="464.00" x2="1080" y2="464.00"/>
<text class="tick" text-anchor="end" x="78" y="468.00">0.0</text>
<line class="grid" x1="86" y1="420.00" x2="1080" y2="420.00"/>
<text class="tick" text-anchor="end" x="78" y="424.00">0.5</text>
<line class="grid" x1="86" y1="376.00" x2="1080" y2="376.00"/>
<text class="tick" text-anchor="end" x="78" y="380.00">1.0</text>
<text class="axis-label" x="18" y="192" transform="rotate(-90 18 192)">p95 latency ms</text>
<text class="axis-label" x="28" y="398" transform="rotate(-90 28 398)">recall@k</text>
<polyline class="latency-line" stroke="#2563eb" points="86.00,307.22 556.36,317.45 758.93,313.42 1080.00,288.10"/>
<polyline class="recall-line" stroke="#2563eb" points="86.00,376.00 556.36,376.00 758.93,376.00 1080.00,376.00"/>
<circle class="point" cx="86.00" cy="307.22" r="4" fill="#2563eb"><title>exact p95 0.155 ms at selectivity 0.01</title></circle>
<circle cx="86.00" cy="376.00" r="2.8" fill="#2563eb" opacity="0.82"><title>exact recall 1</title></circle>
<circle class="point" cx="556.36" cy="317.45" r="4" fill="#2563eb"><title>exact p95 0.131 ms at selectivity 0.05</title></circle>
<circle cx="556.36" cy="376.00" r="2.8" fill="#2563eb" opacity="0.82"><title>exact recall 1</title></circle>
<circle class="point" cx="758.93" cy="313.42" r="4" fill="#2563eb"><title>exact p95 0.14 ms at selectivity 0.1</title></circle>
<circle cx="758.93" cy="376.00" r="2.8" fill="#2563eb" opacity="0.82"><title>exact recall 1</title></circle>
<circle class="point" cx="1080.00" cy="288.10" r="4" fill="#2563eb"><title>exact p95 0.211 ms at selectivity 0.3</title></circle>
<circle cx="1080.00" cy="376.00" r="2.8" fill="#2563eb" opacity="0.82"><title>exact recall 1</title></circle>
<polyline class="latency-line" stroke="#dc2626" points="86.00,281.12 556.36,293.43 758.93,243.78 1080.00,287.81"/>
<polyline class="recall-line" stroke="#dc2626" points="86.00,461.96 556.36,447.50 758.93,450.43 1080.00,422.20"/>
<circle class="point" cx="86.00" cy="281.12" r="4" fill="#dc2626"><title>postfilter p95 0.237 ms at selectivity 0.01</title></circle>
<circle cx="86.00" cy="461.96" r="2.8" fill="#dc2626" opacity="0.82"><title>postfilter recall 0.0231</title></circle>
<circle class="point" cx="556.36" cy="293.43" r="4" fill="#dc2626"><title>postfilter p95 0.194 ms at selectivity 0.05</title></circle>
<circle cx="556.36" cy="447.50" r="2.8" fill="#dc2626" opacity="0.82"><title>postfilter recall 0.188</title></circle>
<circle class="point" cx="758.93" cy="243.78" r="4" fill="#dc2626"><title>postfilter p95 0.434 ms at selectivity 0.1</title></circle>
<circle cx="758.93" cy="450.43" r="2.8" fill="#dc2626" opacity="0.82"><title>postfilter recall 0.154</title></circle>
<circle class="point" cx="1080.00" cy="287.81" r="4" fill="#dc2626"><title>postfilter p95 0.212 ms at selectivity 0.3</title></circle>
<circle cx="1080.00" cy="422.20" r="2.8" fill="#dc2626" opacity="0.82"><title>postfilter recall 0.475</title></circle>
<polyline class="latency-line" stroke="#059669" points="86.00,172.00 556.36,222.73 758.93,257.85 1080.00,245.68"/>
<polyline class="recall-line" stroke="#059669" points="86.00,417.56 556.36,376.00 758.93,376.00 1080.00,376.00"/>
<circle class="point" cx="86.00" cy="172.00" r="4" fill="#059669"><title>iterative p95 1.39 ms at selectivity 0.01</title></circle>
<circle cx="86.00" cy="417.56" r="2.8" fill="#059669" opacity="0.82"><title>iterative recall 0.528</title></circle>
<circle class="point" cx="556.36" cy="222.73" r="4" fill="#059669"><title>iterative p95 0.611 ms at selectivity 0.05</title></circle>
<circle cx="556.36" cy="376.00" r="2.8" fill="#059669" opacity="0.82"><title>iterative recall 1</title></circle>
<circle class="point" cx="758.93" cy="257.85" r="4" fill="#059669"><title>iterative p95 0.345 ms at selectivity 0.1</title></circle>
<circle cx="758.93" cy="376.00" r="2.8" fill="#059669" opacity="0.82"><title>iterative recall 1</title></circle>
<circle class="point" cx="1080.00" cy="245.68" r="4" fill="#059669"><title>iterative p95 0.421 ms at selectivity 0.3</title></circle>
<circle cx="1080.00" cy="376.00" r="2.8" fill="#059669" opacity="0.82"><title>iterative recall 1</title></circle>


<text class="winner-label" x="86" y="484">winner by selectivity</text>
<rect x="80.00" y="492" width="12" height="12" rx="2" fill="#2563eb"><title>measured winner: exact</title></rect>
<circle cx="86.00" cy="519" r="5" fill="#2563eb" stroke="#111827" stroke-width="1"><title>predicted winner: exact</title></circle>
<line class="recall-fail" x1="81.00" y1="531" x2="91.00" y2="541"><title>postfilter recall below target</title></line>
<line class="recall-fail" x1="91.00" y1="531" x2="81.00" y2="541"><title>postfilter recall below target</title></line>
<rect x="550.36" y="492" width="12" height="12" rx="2" fill="#2563eb"><title>measured winner: exact</title></rect>
<circle cx="556.36" cy="519" r="5" fill="#2563eb" stroke="#111827" stroke-width="1"><title>predicted winner: exact</title></circle>
<line class="recall-fail" x1="551.36" y1="531" x2="561.36" y2="541"><title>postfilter recall below target</title></line>
<line class="recall-fail" x1="561.36" y1="531" x2="551.36" y2="541"><title>postfilter recall below target</title></line>
<rect x="752.93" y="492" width="12" height="12" rx="2" fill="#2563eb"><title>measured winner: exact</title></rect>
<circle cx="758.93" cy="519" r="5" fill="#2563eb" stroke="#111827" stroke-width="1"><title>predicted winner: exact</title></circle>
<line class="recall-fail" x1="753.93" y1="531" x2="763.93" y2="541"><title>postfilter recall below target</title></line>
<line class="recall-fail" x1="763.93" y1="531" x2="753.93" y2="541"><title>postfilter recall below target</title></line>
<rect x="1074.00" y="492" width="12" height="12" rx="2" fill="#2563eb"><title>measured winner: exact</title></rect>
<circle cx="1080.00" cy="519" r="5" fill="#2563eb" stroke="#111827" stroke-width="1"><title>predicted winner: exact</title></circle>
<line class="recall-fail" x1="1075.00" y1="531" x2="1085.00" y2="541"><title>postfilter recall below target</title></line>
<line class="recall-fail" x1="1085.00" y1="531" x2="1075.00" y2="541"><title>postfilter recall below target</title></line>
</g>
<g class="panel" id="corr-0_0">
<text class="panel-title" x="86" y="582">correlation = 0</text>
<rect class="frame" x="86" y="602" width="994" height="150" rx="4"/>
<rect class="frame" x="86" y="806" width="994" height="88" rx="4"/>
<line class="grid" x1="86.00" y1="602" x2="86.00" y2="894"/>
<text class="tick" text-anchor="middle" x="86.00" y="912">0.01</text>
<line class="grid" x1="556.36" y1="602" x2="556.36" y2="894"/>
<text class="tick" text-anchor="middle" x="556.36" y="912">0.05</text>
<line class="grid" x1="758.93" y1="602" x2="758.93" y2="894"/>
<text class="tick" text-anchor="middle" x="758.93" y="912">0.1</text>
<line class="grid" x1="1080.00" y1="602" x2="1080.00" y2="894"/>
<text class="tick" text-anchor="middle" x="1080.00" y="912">0.3</text>
<text class="axis-label" text-anchor="end" x="1080" y="931">target selectivity</text>
<line class="grid" x1="86" y1="752.00" x2="1080" y2="752.00"/>
<text class="tick" text-anchor="end" x="78" y="756.00">0.1218</text>
<line class="grid" x1="86" y1="677.00" x2="1080" y2="677.00"/>
<text class="tick" text-anchor="end" x="78" y="681.00">0.4118</text>
<line class="grid" x1="86" y1="602.00" x2="1080" y2="602.00"/>
<text class="tick" text-anchor="end" x="78" y="606.00">1.392</text>
<line class="grid" x1="86" y1="894.00" x2="1080" y2="894.00"/>
<text class="tick" text-anchor="end" x="78" y="898.00">0.0</text>
<line class="grid" x1="86" y1="850.00" x2="1080" y2="850.00"/>
<text class="tick" text-anchor="end" x="78" y="854.00">0.5</text>
<line class="grid" x1="86" y1="806.00" x2="1080" y2="806.00"/>
<text class="tick" text-anchor="end" x="78" y="810.00">1.0</text>
<text class="axis-label" x="18" y="622" transform="rotate(-90 18 622)">p95 latency ms</text>
<text class="axis-label" x="28" y="828" transform="rotate(-90 28 828)">recall@k</text>
<polyline class="latency-line" stroke="#2563eb" points="86.00,742.19 556.36,739.54 758.93,715.91 1080.00,729.34"/>
<polyline class="recall-line" stroke="#2563eb" points="86.00,806.00 556.36,806.00 758.93,806.00 1080.00,806.00"/>
<circle class="point" cx="86.00" cy="742.19" r="4" fill="#2563eb"><title>exact p95 0.143 ms at selectivity 0.01</title></circle>
<circle cx="86.00" cy="806.00" r="2.8" fill="#2563eb" opacity="0.82"><title>exact recall 1</title></circle>
<circle class="point" cx="556.36" cy="739.54" r="4" fill="#2563eb"><title>exact p95 0.149 ms at selectivity 0.05</title></circle>
<circle cx="556.36" cy="806.00" r="2.8" fill="#2563eb" opacity="0.82"><title>exact recall 1</title></circle>
<circle class="point" cx="758.93" cy="715.91" r="4" fill="#2563eb"><title>exact p95 0.219 ms at selectivity 0.1</title></circle>
<circle cx="758.93" cy="806.00" r="2.8" fill="#2563eb" opacity="0.82"><title>exact recall 1</title></circle>
<circle class="point" cx="1080.00" cy="729.34" r="4" fill="#2563eb"><title>exact p95 0.176 ms at selectivity 0.3</title></circle>
<circle cx="1080.00" cy="806.00" r="2.8" fill="#2563eb" opacity="0.82"><title>exact recall 1</title></circle>
<polyline class="latency-line" stroke="#dc2626" points="86.00,713.40 556.36,640.07 758.93,724.66 1080.00,697.22"/>
<polyline class="recall-line" stroke="#dc2626" points="86.00,889.97 556.36,879.33 758.93,854.03 1080.00,808.57"/>
<circle class="point" cx="86.00" cy="713.40" r="4" fill="#dc2626"><title>postfilter p95 0.228 ms at selectivity 0.01</title></circle>
<circle cx="86.00" cy="889.97" r="2.8" fill="#dc2626" opacity="0.82"><title>postfilter recall 0.0458</title></circle>
<circle class="point" cx="556.36" cy="640.07" r="4" fill="#dc2626"><title>postfilter p95 0.75 ms at selectivity 0.05</title></circle>
<circle cx="556.36" cy="879.33" r="2.8" fill="#dc2626" opacity="0.82"><title>postfilter recall 0.167</title></circle>
<circle class="point" cx="758.93" cy="724.66" r="4" fill="#dc2626"><title>postfilter p95 0.19 ms at selectivity 0.1</title></circle>
<circle cx="758.93" cy="854.03" r="2.8" fill="#dc2626" opacity="0.82"><title>postfilter recall 0.454</title></circle>
<circle class="point" cx="1080.00" cy="697.22" r="4" fill="#dc2626"><title>postfilter p95 0.296 ms at selectivity 0.3</title></circle>
<circle cx="1080.00" cy="808.57" r="2.8" fill="#dc2626" opacity="0.82"><title>postfilter recall 0.971</title></circle>
<polyline class="latency-line" stroke="#059669" points="86.00,663.04 556.36,689.28 758.93,702.24 1080.00,701.40"/>
<polyline class="recall-line" stroke="#059669" points="86.00,812.97 556.36,806.00 758.93,806.00 1080.00,806.00"/>
<circle class="point" cx="86.00" cy="663.04" r="4" fill="#059669"><title>iterative p95 0.517 ms at selectivity 0.01</title></circle>
<circle cx="86.00" cy="812.97" r="2.8" fill="#059669" opacity="0.82"><title>iterative recall 0.921</title></circle>
<circle class="point" cx="556.36" cy="689.28" r="4" fill="#059669"><title>iterative p95 0.337 ms at selectivity 0.05</title></circle>
<circle cx="556.36" cy="806.00" r="2.8" fill="#059669" opacity="0.82"><title>iterative recall 1</title></circle>
<circle class="point" cx="758.93" cy="702.24" r="4" fill="#059669"><title>iterative p95 0.273 ms at selectivity 0.1</title></circle>
<circle cx="758.93" cy="806.00" r="2.8" fill="#059669" opacity="0.82"><title>iterative recall 1</title></circle>
<circle class="point" cx="1080.00" cy="701.40" r="4" fill="#059669"><title>iterative p95 0.277 ms at selectivity 0.3</title></circle>
<circle cx="1080.00" cy="806.00" r="2.8" fill="#059669" opacity="0.82"><title>iterative recall 1</title></circle>


<text class="winner-label" x="86" y="914">winner by selectivity</text>
<rect x="80.00" y="922" width="12" height="12" rx="2" fill="#2563eb"><title>measured winner: exact</title></rect>
<circle cx="86.00" cy="949" r="5" fill="#2563eb" stroke="#111827" stroke-width="1"><title>predicted winner: exact</title></circle>
<line class="recall-fail" x1="81.00" y1="961" x2="91.00" y2="971"><title>postfilter recall below target</title></line>
<line class="recall-fail" x1="91.00" y1="961" x2="81.00" y2="971"><title>postfilter recall below target</title></line>
<rect x="550.36" y="922" width="12" height="12" rx="2" fill="#2563eb"><title>measured winner: exact</title></rect>
<circle cx="556.36" cy="949" r="5" fill="#2563eb" stroke="#111827" stroke-width="1"><title>predicted winner: exact</title></circle>
<line class="recall-fail" x1="551.36" y1="961" x2="561.36" y2="971"><title>postfilter recall below target</title></line>
<line class="recall-fail" x1="561.36" y1="961" x2="551.36" y2="971"><title>postfilter recall below target</title></line>
<rect x="752.93" y="922" width="12" height="12" rx="2" fill="#2563eb"><title>measured winner: exact</title></rect>
<circle cx="758.93" cy="949" r="5" fill="#2563eb" stroke="#111827" stroke-width="1"><title>predicted winner: exact</title></circle>
<line class="recall-fail" x1="753.93" y1="961" x2="763.93" y2="971"><title>postfilter recall below target</title></line>
<line class="recall-fail" x1="763.93" y1="961" x2="753.93" y2="971"><title>postfilter recall below target</title></line>
<rect x="1074.00" y="922" width="12" height="12" rx="2" fill="#2563eb"><title>measured winner: exact</title></rect>
<circle cx="1080.00" cy="949" r="5" fill="#2563eb" stroke="#111827" stroke-width="1"><title>predicted winner: exact</title></circle>
<line class="recall-fail" x1="1075.00" y1="961" x2="1085.00" y2="971"><title>postfilter recall below target</title></line>
<line class="recall-fail" x1="1085.00" y1="961" x2="1075.00" y2="971"><title>postfilter recall below target</title></line>
</g>
<g class="panel" id="corr-0_6">
<text class="panel-title" x="86" y="1012">correlation = 0.6</text>
<rect class="frame" x="86" y="1032" width="994" height="150" rx="4"/>
<rect class="frame" x="86" y="1236" width="994" height="88" rx="4"/>
<line class="grid" x1="86.00" y1="1032" x2="86.00" y2="1324"/>
<text class="tick" text-anchor="middle" x="86.00" y="1342">0.01</text>
<line class="grid" x1="556.36" y1="1032" x2="556.36" y2="1324"/>
<text class="tick" text-anchor="middle" x="556.36" y="1342">0.05</text>
<line class="grid" x1="758.93" y1="1032" x2="758.93" y2="1324"/>
<text class="tick" text-anchor="middle" x="758.93" y="1342">0.1</text>
<line class="grid" x1="1080.00" y1="1032" x2="1080.00" y2="1324"/>
<text class="tick" text-anchor="middle" x="1080.00" y="1342">0.3</text>
<text class="axis-label" text-anchor="end" x="1080" y="1361">target selectivity</text>
<line class="grid" x1="86" y1="1182.00" x2="1080" y2="1182.00"/>
<text class="tick" text-anchor="end" x="78" y="1186.00">0.1218</text>
<line class="grid" x1="86" y1="1107.00" x2="1080" y2="1107.00"/>
<text class="tick" text-anchor="end" x="78" y="1111.00">0.4118</text>
<line class="grid" x1="86" y1="1032.00" x2="1080" y2="1032.00"/>
<text class="tick" text-anchor="end" x="78" y="1036.00">1.392</text>
<line class="grid" x1="86" y1="1324.00" x2="1080" y2="1324.00"/>
<text class="tick" text-anchor="end" x="78" y="1328.00">0.0</text>
<line class="grid" x1="86" y1="1280.00" x2="1080" y2="1280.00"/>
<text class="tick" text-anchor="end" x="78" y="1284.00">0.5</text>
<line class="grid" x1="86" y1="1236.00" x2="1080" y2="1236.00"/>
<text class="tick" text-anchor="end" x="78" y="1240.00">1.0</text>
<text class="axis-label" x="18" y="1052" transform="rotate(-90 18 1052)">p95 latency ms</text>
<text class="axis-label" x="28" y="1258" transform="rotate(-90 28 1258)">recall@k</text>
<polyline class="latency-line" stroke="#2563eb" points="86.00,1182.00 556.36,1176.86 758.93,1172.57 1080.00,1099.04"/>
<polyline class="recall-line" stroke="#2563eb" points="86.00,1236.00 556.36,1236.00 758.93,1236.00 1080.00,1236.00"/>
<circle class="point" cx="86.00" cy="1182.00" r="4" fill="#2563eb"><title>exact p95 0.122 ms at selectivity 0.01</title></circle>
<circle cx="86.00" cy="1236.00" r="2.8" fill="#2563eb" opacity="0.82"><title>exact recall 1</title></circle>
<circle class="point" cx="556.36" cy="1176.86" r="4" fill="#2563eb"><title>exact p95 0.132 ms at selectivity 0.05</title></circle>
<circle cx="556.36" cy="1236.00" r="2.8" fill="#2563eb" opacity="0.82"><title>exact recall 1</title></circle>
<circle class="point" cx="758.93" cy="1172.57" r="4" fill="#2563eb"><title>exact p95 0.142 ms at selectivity 0.1</title></circle>
<circle cx="758.93" cy="1236.00" r="2.8" fill="#2563eb" opacity="0.82"><title>exact recall 1</title></circle>
<circle class="point" cx="1080.00" cy="1099.04" r="4" fill="#2563eb"><title>exact p95 0.469 ms at selectivity 0.3</title></circle>
<circle cx="1080.00" cy="1236.00" r="2.8" fill="#2563eb" opacity="0.82"><title>exact recall 1</title></circle>
<polyline class="latency-line" stroke="#dc2626" points="86.00,1102.63 556.36,1145.17 758.93,1154.26 1080.00,1110.84"/>
<polyline class="recall-line" stroke="#dc2626" points="86.00,1319.97 556.36,1310.80 758.93,1295.77 1080.00,1283.67"/>
<circle class="point" cx="86.00" cy="1102.63" r="4" fill="#dc2626"><title>postfilter p95 0.442 ms at selectivity 0.01</title></circle>
<circle cx="86.00" cy="1319.97" r="2.8" fill="#dc2626" opacity="0.82"><title>postfilter recall 0.0458</title></circle>
<circle class="point" cx="556.36" cy="1145.17" r="4" fill="#dc2626"><title>postfilter p95 0.222 ms at selectivity 0.05</title></circle>
<circle cx="556.36" cy="1310.80" r="2.8" fill="#dc2626" opacity="0.82"><title>postfilter recall 0.15</title></circle>
<circle class="point" cx="758.93" cy="1154.26" r="4" fill="#dc2626"><title>postfilter p95 0.191 ms at selectivity 0.1</title></circle>
<circle cx="758.93" cy="1295.77" r="2.8" fill="#dc2626" opacity="0.82"><title>postfilter recall 0.321</title></circle>
<circle class="point" cx="1080.00" cy="1110.84" r="4" fill="#dc2626"><title>postfilter p95 0.387 ms at selectivity 0.3</title></circle>
<circle cx="1080.00" cy="1283.67" r="2.8" fill="#dc2626" opacity="0.82"><title>postfilter recall 0.458</title></circle>
<polyline class="latency-line" stroke="#059669" points="86.00,1113.77 556.36,1088.75 758.93,1069.28 1080.00,1070.46"/>
<polyline class="recall-line" stroke="#059669" points="86.00,1251.03 556.36,1236.00 758.93,1236.00 1080.00,1236.00"/>
<circle class="point" cx="86.00" cy="1113.77" r="4" fill="#059669"><title>iterative p95 0.369 ms at selectivity 0.01</title></circle>
<circle cx="86.00" cy="1251.03" r="2.8" fill="#059669" opacity="0.82"><title>iterative recall 0.829</title></circle>
<circle class="point" cx="556.36" cy="1088.75" r="4" fill="#059669"><title>iterative p95 0.554 ms at selectivity 0.05</title></circle>
<circle cx="556.36" cy="1236.00" r="2.8" fill="#059669" opacity="0.82"><title>iterative recall 1</title></circle>
<circle class="point" cx="758.93" cy="1069.28" r="4" fill="#059669"><title>iterative p95 0.76 ms at selectivity 0.1</title></circle>
<circle cx="758.93" cy="1236.00" r="2.8" fill="#059669" opacity="0.82"><title>iterative recall 1</title></circle>
<circle class="point" cx="1080.00" cy="1070.46" r="4" fill="#059669"><title>iterative p95 0.745 ms at selectivity 0.3</title></circle>
<circle cx="1080.00" cy="1236.00" r="2.8" fill="#059669" opacity="0.82"><title>iterative recall 1</title></circle>


<text class="winner-label" x="86" y="1344">winner by selectivity</text>
<rect x="80.00" y="1352" width="12" height="12" rx="2" fill="#2563eb"><title>measured winner: exact</title></rect>
<circle cx="86.00" cy="1379" r="5" fill="#2563eb" stroke="#111827" stroke-width="1"><title>predicted winner: exact</title></circle>
<line class="recall-fail" x1="81.00" y1="1391" x2="91.00" y2="1401"><title>postfilter recall below target</title></line>
<line class="recall-fail" x1="91.00" y1="1391" x2="81.00" y2="1401"><title>postfilter recall below target</title></line>
<rect x="550.36" y="1352" width="12" height="12" rx="2" fill="#2563eb"><title>measured winner: exact</title></rect>
<circle cx="556.36" cy="1379" r="5" fill="#2563eb" stroke="#111827" stroke-width="1"><title>predicted winner: exact</title></circle>
<line class="recall-fail" x1="551.36" y1="1391" x2="561.36" y2="1401"><title>postfilter recall below target</title></line>
<line class="recall-fail" x1="561.36" y1="1391" x2="551.36" y2="1401"><title>postfilter recall below target</title></line>
<rect x="752.93" y="1352" width="12" height="12" rx="2" fill="#2563eb"><title>measured winner: exact</title></rect>
<circle cx="758.93" cy="1379" r="5" fill="#2563eb" stroke="#111827" stroke-width="1"><title>predicted winner: exact</title></circle>
<line class="recall-fail" x1="753.93" y1="1391" x2="763.93" y2="1401"><title>postfilter recall below target</title></line>
<line class="recall-fail" x1="763.93" y1="1391" x2="753.93" y2="1401"><title>postfilter recall below target</title></line>
<rect x="1074.00" y="1352" width="12" height="12" rx="2" fill="#2563eb"><title>measured winner: exact</title></rect>
<circle cx="1080.00" cy="1379" r="5" fill="#2563eb" stroke="#111827" stroke-width="1"><title>predicted winner: exact</title></circle>
<line class="recall-fail" x1="1075.00" y1="1391" x2="1085.00" y2="1401"><title>postfilter recall below target</title></line>
<line class="recall-fail" x1="1085.00" y1="1391" x2="1075.00" y2="1401"><title>postfilter recall below target</title></line>
</g>
<text class="footnote" x="86" y="1460">Solid lines show p95 latency. Lower thin lines show recall@k. Squares are measured winners; circles are predicted winners.</text>
</svg>
